<?xml version="1.0" encoding="utf-8"?>
<!-- Generator: Adobe Illustrator 15.0.0, SVG Export Plug-In . SVG Version: 6.00 Build 0)  -->
<!DOCTYPE svg PUBLIC "-//W3C//DTD SVG 1.1//EN" "http://www.w3.org/Graphics/SVG/1.1/DTD/svg11.dtd">
<svg version="1.1" id="レイヤー_1" xmlns="http://www.w3.org/2000/svg" xmlns:xlink="http://www.w3.org/1999/xlink" x="0px"
	 y="0px" width="600px" height="600px" viewBox="0 0 600 600" enable-background="new 0 0 600 600" xml:space="preserve">
<rect fill="#C1272D" width="600" height="600"/>
<g>
	<path fill="#FFFFFF" d="M170.851,119.4c0-51.8-4.2-55.999-55.3-55.999v-22.4h170.1c59.5,0,98,4.9,131.6,30.1
		c25.9,19.601,42.699,49.7,42.699,86.1c0,32.9-10.5,107.8-124.6,126.7v1.399c80.5,2.8,149.1,45.5,149.1,126.699
		c0,42.701-12.6,77.7-37.799,103.6c-26.6,28-65.801,43.4-131.6,43.4h-199.5v-22.4c51.1,0,55.3-4.199,55.3-56V119.4z M249.25,69.001
		c-17.5,0-19.6,6.3-19.6,23.8v180.6h49c73.5,0,121.799-36.4,121.799-109.2c0-55.999-30.799-95.199-104.3-95.199H249.25z
		 M229.65,302.1v193.2c0,29.399,4.2,35,25.899,35h58.101c77.699,0,109.9-42.701,109.9-119.7c0-34.3-12.602-61.6-34.301-80.5
		c-21-18.899-53.199-28-97.3-28H229.65z"/>
</g>
</svg>
