<?xml version="1.0" encoding="utf-8"?>
<!-- Generator: Adobe Illustrator 15.0.0, SVG Export Plug-In . SVG Version: 6.00 Build 0)  -->
<!DOCTYPE svg PUBLIC "-//W3C//DTD SVG 1.1//EN" "http://www.w3.org/Graphics/SVG/1.1/DTD/svg11.dtd">
<svg version="1.1" xmlns="http://www.w3.org/2000/svg" xmlns:xlink="http://www.w3.org/1999/xlink" x="0px" y="0px"
	 width="651.383px" height="180.433px" viewBox="0 0 651.383 180.433" enable-background="new 0 0 651.383 180.433"
	 xml:space="preserve">
<g id="レイヤー_2" display="none">
	<rect display="inline" width="651" height="180"/>
</g>
<g id="レイヤー_1">
	<g>
		<path fill="#FFFFFF" d="M30.5,80.737v-2.295c1.855-1.106,3.271-2.116,4.248-3.027c0.391-4.492,0.586-14.42,0.586-29.785
			c0-11.133-0.163-19.01-0.488-23.633c-0.163-2.506-0.505-3.971-1.025-4.395c-0.716-0.651-3.19-1.074-7.422-1.27v-4.102l9.375,0.195
			l7.178,0.146c2.181,0,5.403-0.057,9.668-0.171c4.134-0.114,7.096-0.171,8.887-0.171c7.227,0,12.402,1.207,15.527,3.62
			s4.688,5.709,4.688,9.888c0,4.309-1.544,7.824-4.632,10.544c-3.088,2.721-7.443,4.665-13.066,5.831v0.391
			c5.786,0.587,9.85,1.466,12.191,2.64s4.226,2.999,5.656,5.477c1.43,2.477,2.146,5.296,2.146,8.458c0,3.879-1.18,7.545-3.54,11
			c-2.36,3.455-5.485,6.096-9.375,7.921c-3.89,1.825-9.367,2.737-16.431,2.737c-1.4,0-3.5-0.057-6.299-0.171
			c-2.604-0.114-4.736-0.171-6.396-0.171C40.12,80.396,36.294,80.509,30.5,80.737z M49.25,40.454h2.539
			c5.501,0,9.367-0.993,11.597-2.979c2.229-1.985,3.345-5.094,3.345-9.326c0-3.711-0.903-6.445-2.71-8.203s-4.777-2.637-8.911-2.637
			c-1.53,0-3.402,0.13-5.615,0.391c-0.195,9.994-0.293,16.113-0.293,18.359L49.25,40.454z M49.397,75.171
			c1.883,0.488,3.653,0.732,5.309,0.732c4.611,0,8.15-1.326,10.618-3.979c2.467-2.653,3.702-6.551,3.702-11.694
			c0-3.353-0.561-6.095-1.681-8.228c-1.12-2.132-2.663-3.719-4.627-4.761c-1.964-1.042-4.765-1.563-8.401-1.563l-4.919,0.049v1.27
			l-0.098,12.646l0.098,12.793V75.171z"/>
		<path fill="#FFFFFF" d="M92.463,15.259v-2.832c4.622-0.618,8.268-1.253,10.938-1.904c2.669-0.651,5.55-1.579,8.643-2.783
			l1.27,1.076c-0.488,11.638-0.732,27.888-0.732,48.75c0,4.205,0.065,8.459,0.195,12.762c0.064,2.739,0.218,4.328,0.461,4.768
			c0.243,0.44,0.63,0.791,1.164,1.051c0.533,0.261,2.466,0.457,5.797,0.587v4.004l-5.118-0.146
			c-3.185-0.098-5.866-0.146-8.043-0.146l-14.574,0.293v-4.004l3.613-0.195c1.627-0.065,2.677-0.367,3.149-0.905
			c0.472-0.538,0.757-2.584,0.854-6.138c0.163-4.923,0.244-11.917,0.244-20.981l-0.049-20.882c-0.033-6.358-0.212-9.944-0.537-10.76
			c-0.13-0.391-0.375-0.685-0.732-0.88C98.42,15.634,96.239,15.389,92.463,15.259z"/>
		<path fill="#FFFFFF" d="M126.985,57.52c0-7.723,1.807-13.522,5.42-17.4c4.329-4.594,10.579-6.892,18.75-6.892
			c8.138,0,14.079,1.842,17.822,5.523c3.743,3.682,5.615,9.499,5.615,17.449c0,8.179-2.157,14.484-6.47,18.916
			c-4.313,4.432-10.311,6.647-17.993,6.647c-7.552,0-13.298-2.069-17.236-6.207C128.954,71.417,126.985,65.405,126.985,57.52z
			 M140.51,54.167c0,8.681,1.106,14.865,3.32,18.552c1.725,2.84,4.313,4.259,7.764,4.259c3.027,0,5.363-1.207,7.007-3.623
			c1.644-2.415,2.466-6.804,2.466-13.167c0-8.746-1.009-14.799-3.027-18.161c-1.66-2.675-4.248-4.014-7.764-4.014
			c-3.027,0-5.412,1.224-7.153,3.671C141.381,44.131,140.51,48.292,140.51,54.167z"/>
		<path fill="#FFFFFF" d="M182.6,57.52c0-7.723,1.807-13.522,5.42-17.4c4.329-4.594,10.579-6.892,18.75-6.892
			c8.138,0,14.079,1.842,17.822,5.523c3.743,3.682,5.615,9.499,5.615,17.449c0,8.179-2.157,14.484-6.47,18.916
			c-4.313,4.432-10.311,6.647-17.993,6.647c-7.552,0-13.298-2.069-17.236-6.207C184.569,71.417,182.6,65.405,182.6,57.52z
			 M196.125,54.167c0,8.681,1.106,14.865,3.32,18.552c1.725,2.84,4.313,4.259,7.764,4.259c3.027,0,5.363-1.207,7.007-3.623
			c1.644-2.415,2.466-6.804,2.466-13.167c0-8.746-1.009-14.799-3.027-18.161c-1.66-2.675-4.248-4.014-7.764-4.014
			c-3.027,0-5.412,1.224-7.153,3.671C196.996,44.131,196.125,48.292,196.125,54.167z"/>
		<path fill="#FFFFFF" d="M237.238,80.737v-4.004c3.36-0.13,5.275-0.35,5.743-0.66c0.469-0.31,0.768-0.872,0.897-1.687
			c0.26-1.598,0.391-5.379,0.391-11.344c0-12.55-0.162-19.346-0.485-20.389c-0.259-0.88-1.39-1.337-3.395-1.37l-3.151-0.098v-3.76
			c3.993-0.428,7.402-0.963,10.228-1.605c2.825-0.642,5.375-1.424,7.648-2.347c0.454-0.165,0.795-0.247,1.022-0.247
			c0.454,0,0.682,0.407,0.682,1.221c0,0.619-0.04,1.449-0.117,2.49c-0.052,0.456-0.078,1.27-0.078,2.441v1.758l7.994-6.006
			c1.689-1.27,4.257-1.904,7.702-1.904c3.477,0,6.238,0.676,8.286,2.026c2.048,1.351,3.607,3.508,4.68,6.471l8.301-6.593
			c1.595-1.27,3.824-1.904,6.689-1.904c5.11,0,8.87,1.256,11.279,3.768c2.408,2.512,3.613,6.59,3.613,12.234l-0.098,4.062
			c-0.131,4.503-0.195,8.515-0.195,12.039c0,4.666,0.146,7.684,0.439,9.054c0.195,0.751,0.528,1.281,1.001,1.591
			c0.472,0.31,2.303,0.563,5.493,0.758v4.004c-4.05-0.195-7.581-0.293-10.594-0.293c-2.916,0-5.944,0.098-9.087,0.293l-0.583-0.929
			c0.846-7.007,1.27-13.851,1.27-20.533c0-7.919-0.612-12.865-1.836-14.837c-1.225-1.972-3.388-2.958-6.488-2.958
			c-2.024,0-3.804,0.507-5.338,1.518c-1.534,1.012-2.546,2.171-3.035,3.476c-0.327,0.914-0.49,3.771-0.49,8.569
			c0,8.618,0.113,14.575,0.342,17.872c0.098,1.47,0.398,2.408,0.903,2.816c0.504,0.408,2.579,0.743,6.226,1.003v4.004
			c-4.265-0.195-8.447-0.293-12.549-0.293c-5.111,0-9.701,0.098-13.77,0.293v-4.004c3.223,0,5.11-0.465,5.664-1.396
			c0.553-0.93,0.83-5.019,0.83-12.266c0-8.258-0.163-13.399-0.488-15.424c-0.326-2.023-1.115-3.558-2.368-4.602
			c-1.254-1.044-2.987-1.567-5.2-1.567c-1.628,0-3.109,0.375-4.443,1.126c-1.335,0.751-2.458,1.812-3.369,3.183
			c-0.521,0.75-0.781,1.91-0.781,3.476l0.049,1.861c0.098,0.914,0.146,3.477,0.146,7.687l-0.049,5.778
			c0,5.55,0.098,8.831,0.293,9.842c0.098,0.653,0.366,1.126,0.806,1.419c0.439,0.294,2.222,0.587,5.347,0.881v4.004
			c-3.899-0.195-8.172-0.293-12.817-0.293C248.772,80.444,244.387,80.542,237.238,80.737z"/>
		<path fill="#FFFFFF" d="M29.719,156.737v-2.637c1.725-0.781,3.304-1.692,4.736-2.734c0.651-5.078,0.977-15.755,0.977-32.031
			c0-11.1-0.114-18.457-0.342-22.07c-0.098-1.92-0.432-3.133-1.001-3.638c-0.57-0.504-2.987-0.936-7.251-1.294v-4.102
			c7.675,0.293,13.741,0.439,18.196,0.439l26.88-0.439c2.829,0,5.381,0.115,7.658,0.345l0.342,0.542
			c-0.716,3.583-1.237,8.349-1.563,14.298h-3.857c-0.163-4.752-0.35-7.292-0.562-7.617c-0.212-0.325-0.952-0.635-2.222-0.928
			c-2.702-0.586-6.836-0.879-12.402-0.879c-2.734,0-5.925,0.114-9.57,0.342c-0.423,10.059-0.667,18.066-0.732,24.023
			c3.483,0.228,6.754,0.342,9.814,0.342c4.524,0,7.243-0.146,8.154-0.439c0.553-0.195,0.944-0.667,1.172-1.416
			c0.195-0.586,0.423-2.637,0.684-6.152h4.199c-0.163,5.514-0.244,9.103-0.244,10.767l0.244,11.011h-4.199
			c-0.228-4.288-0.521-6.76-0.879-7.414c-0.195-0.393-0.635-0.671-1.318-0.835c-1.628-0.36-5.29-0.54-10.986-0.54
			c-1.791,0-3.89,0.114-6.299,0.342c-0.065,1.72-0.098,3.471-0.098,5.254c0,9.276,0.163,16.412,0.488,21.406l9.687,0.146
			c5.512,0,10.551-0.293,15.118-0.879c0.813-3.009,1.595-6.427,2.344-10.254h4.053c-0.749,5.797-1.188,11.363-1.318,16.699
			c-2.962,0.228-5.811,0.342-8.545,0.342c-1.791,0-5.322-0.057-10.596-0.171c-4.916-0.114-9.44-0.171-13.574-0.171
			C41.47,156.396,35.741,156.509,29.719,156.737z"/>
		<path fill="#FFFFFF" d="M86.848,156.737v-4.004c3.548-0.195,5.55-0.48,6.006-0.856c0.456-0.375,0.732-1.214,0.83-2.518
			c0.195-3.292,0.293-9.094,0.293-17.407c0-4.107-0.065-7.645-0.195-10.611c-0.065-1.825-0.194-2.9-0.388-3.227
			c-0.162-0.261-0.42-0.456-0.776-0.586c-0.355-0.131-2.279-0.245-5.77-0.343v-3.76c1.762,0,4.511-0.378,8.248-1.136
			c3.736-0.757,6.877-1.63,9.422-2.618l1.322-0.445c0.456,0,0.685,0.375,0.685,1.123l-0.049,0.439
			c-0.098,0.912-0.146,3.255-0.146,7.031l7.556-6.348c0.942-0.813,1.917-1.367,2.925-1.66c1.43-0.391,3.168-0.586,5.216-0.586
			c3.445,0,6.264,0.596,8.458,1.787s3.803,2.838,4.827,4.942c1.024,2.104,1.536,5.375,1.536,9.813c0,1.958-0.049,4.225-0.146,6.802
			c-0.163,5.286-0.244,9.853-0.244,13.702c0,2.187,0.179,3.704,0.537,4.551c0.26,0.587,0.626,0.979,1.099,1.175
			c0.472,0.196,2.254,0.441,5.347,0.734v4.004l-6.006-0.195l-3.857-0.098l-10.059,0.293l-0.537-0.636
			c0.846-6.192,1.27-12.548,1.27-19.067c0-8.278-0.505-13.379-1.514-15.302c-1.302-2.476-3.679-3.715-7.129-3.715
			c-2.214,0-4.134,0.563-5.762,1.689c-1.628,1.126-2.686,2.326-3.174,3.599c-0.228,0.522-0.342,2.171-0.342,4.946
			c0,11.817,0.049,18.583,0.146,20.297c0.098,1.713,0.374,2.766,0.83,3.158c0.586,0.49,2.767,0.833,6.543,1.028v4.004
			c-5.664-0.195-10.449-0.293-14.355-0.293C97.183,156.444,92.968,156.542,86.848,156.737z"/>
		<path fill="#FFFFFF" d="M183.577,126.806h-4.004c-0.229-3.874-0.506-6.104-0.833-6.689c-0.424-0.911-1.379-1.741-2.864-2.49
			c-1.485-0.749-3.353-1.123-5.604-1.123c-3.459,0-5.981,0.988-7.563,2.962c-1.583,1.975-2.375,5.525-2.375,10.651
			c0,6.497,1.481,11.517,4.444,15.058c2.963,3.542,6.772,5.313,11.429,5.313c1.693,0,3.248-0.146,4.664-0.44
			c1.416-0.293,2.711-0.718,3.883-1.273l0.823,1.077c-0.711,1.554-1.373,3.124-1.986,4.71c-2.15,1.067-4.34,1.867-6.57,2.401
			c-2.231,0.533-4.486,0.8-6.766,0.8c-7.1,0-12.628-1.963-16.584-5.89c-3.957-3.926-5.935-9.506-5.935-16.741
			c0-2.672,0.26-5.091,0.781-7.258c0.521-2.167,1.229-4.008,2.124-5.523c0.895-1.516,1.88-2.745,2.954-3.69
			c0.651-0.521,3.45-2.33,8.398-5.425c2.897-1.824,5.005-2.948,6.323-3.372s3.084-0.636,5.298-0.636
			c1.953,0,3.857,0.146,5.713,0.439s3.662,0.732,5.42,1.318l0.83,0.879C184.407,117.301,183.739,122.281,183.577,126.806z"/>
		<path fill="#FFFFFF" d="M191.829,156.737v-4.004c3.516-0.195,5.534-0.44,6.055-0.734c0.325-0.195,0.569-0.488,0.732-0.88
			c0.325-0.814,0.504-3.798,0.537-8.95l0.098-17.998c0-9.553-0.098-18.258-0.293-26.116c-0.065-2.967-0.358-4.703-0.879-5.208
			c-0.521-0.505-2.604-0.807-6.25-0.905v-3.516c1.99,0,4.861-0.374,8.614-1.123c3.752-0.749,6.82-1.611,9.202-2.588
			c0.979-0.423,1.551-0.635,1.714-0.635c0.489,0,0.734,0.31,0.734,0.928v0.342c-0.098,0.781-0.146,1.986-0.146,3.613l-0.342,15.674
			c-0.065,3.809-0.082,8.203-0.049,13.184l6.436-5.469c1.364-1.139,2.388-1.839,3.071-2.1c1.723-0.684,3.737-1.025,6.044-1.025
			c5.103,0,8.873,1.272,11.311,3.817c2.404,2.545,3.606,6.574,3.606,12.088l-0.195,19.379c0,3.458,0.13,5.596,0.388,6.411
			c0.162,0.49,0.542,0.881,1.141,1.174c0.598,0.293,2.416,0.506,5.454,0.636v4.004c-4.004-0.195-7.568-0.293-10.693-0.293
			c-2.93,0-5.94,0.098-9.033,0.293l-0.635-0.831c0.651-6.323,0.977-12.532,0.977-18.627c0-8.344-0.488-13.51-1.465-15.499
			c-1.302-2.509-3.646-3.764-7.031-3.764c-2.019,0-3.809,0.474-5.371,1.42c-1.563,0.947-2.645,2.065-3.247,3.354
			c-0.603,1.29-0.903,3.713-0.903,7.271l0.195,15.033c0.032,3.395,0.195,5.419,0.488,6.072c0.163,0.326,0.423,0.571,0.781,0.734
			c0.716,0.359,2.832,0.637,6.348,0.833v4.004c-3.744-0.195-7.666-0.293-11.768-0.293
			C201.529,156.444,196.321,156.542,191.829,156.737z"/>
		<path fill="#FFFFFF" d="M298.42,152.733v4.004l-3.77-0.146c-1.991-0.098-3.982-0.146-5.973-0.146
			c-3.067,0-5.972,0.098-8.713,0.293l-0.49-0.534l0.488-6.695l-10.186,7.624c-1.82,0.42-3.429,0.631-4.825,0.631
			c-3.444,0-6.108-1.025-7.992-3.076c-1.885-2.051-2.827-5.045-2.827-8.984c0-4.85,1.283-8.268,3.85-10.254
			c3.314-2.604,10.641-4.932,21.98-6.982c-0.065-3.856-0.73-6.651-1.997-8.384c-1.785-2.386-4.544-3.579-8.277-3.579
			c-0.878,0-1.778,0.106-2.703,0.317c-0.926,0.212-1.858,0.545-2.8,1.001l-2.191,5.225l-3.369-0.83l0.098-2.197l-0.049-2.148
			l-0.049-1.953c4.98-3.092,8.561-5.029,10.742-5.811c1.595-0.586,3.809-0.879,6.641-0.879c3.841,0,6.966,0.579,9.375,1.737
			c2.408,1.158,4.166,2.733,5.273,4.723c1.106,1.99,1.66,4.894,1.66,8.711c0,1.599-0.065,4.454-0.195,8.564
			c-0.131,4.242-0.195,7.651-0.195,10.228c0,4.079,0.113,6.559,0.342,7.439c0.13,0.521,0.447,0.93,0.952,1.224
			C293.724,152.146,295.457,152.44,298.42,152.733z M279.963,132.665c-5.709,1.241-9.423,2.588-11.142,4.041
			c-1.72,1.453-2.579,3.403-2.579,5.853c0,1.992,0.551,3.559,1.654,4.702c1.103,1.143,2.498,1.713,4.185,1.713
			c2.562,0,5.189-1.453,7.882-4.359V132.665z"/>
		<path fill="#FFFFFF" d="M303.4,156.737v-4.004c3.548-0.195,5.55-0.48,6.006-0.856c0.455-0.375,0.732-1.214,0.83-2.518
			c0.195-3.292,0.293-9.094,0.293-17.407c0-4.107-0.065-7.645-0.195-10.611c-0.064-1.825-0.193-2.9-0.388-3.227
			c-0.161-0.261-0.42-0.456-0.775-0.586c-0.355-0.131-2.279-0.245-5.771-0.343v-3.76c1.763,0,4.512-0.378,8.248-1.136
			c3.736-0.757,6.877-1.63,9.423-2.618l1.321-0.445c0.457,0,0.686,0.375,0.686,1.123l-0.049,0.439
			c-0.098,0.912-0.146,3.255-0.146,7.031l7.557-6.348c0.941-0.813,1.917-1.367,2.925-1.66c1.43-0.391,3.168-0.586,5.216-0.586
			c3.445,0,6.264,0.596,8.458,1.787c2.193,1.191,3.803,2.838,4.826,4.942c1.024,2.104,1.536,5.375,1.536,9.813
			c0,1.958-0.049,4.225-0.146,6.802c-0.163,5.286-0.244,9.853-0.244,13.702c0,2.187,0.179,3.704,0.537,4.551
			c0.26,0.587,0.626,0.979,1.099,1.175c0.472,0.196,2.254,0.441,5.347,0.734v4.004l-6.006-0.195l-3.857-0.098l-10.059,0.293
			l-0.537-0.636c0.846-6.192,1.27-12.548,1.27-19.067c0-8.278-0.505-13.379-1.514-15.302c-1.303-2.476-3.679-3.715-7.129-3.715
			c-2.214,0-4.135,0.563-5.762,1.689c-1.628,1.126-2.686,2.326-3.174,3.599c-0.229,0.522-0.342,2.171-0.342,4.946
			c0,11.817,0.049,18.583,0.146,20.297c0.098,1.713,0.374,2.766,0.83,3.158c0.586,0.49,2.767,0.833,6.543,1.028v4.004
			c-5.664-0.195-10.449-0.293-14.355-0.293C313.735,156.444,309.52,156.542,303.4,156.737z"/>
		<path fill="#FFFFFF" d="M362.824,117.479l6.494-4.248c-0.072-5.762-0.235-10.807-0.488-15.137
			c4.444-1.367,8.644-3.027,12.598-4.98l1.465,1.123c-0.717,4.72-1.205,11.052-1.465,18.994c1.497,0.261,2.979,0.391,4.443,0.391
			c3.32,0,6.299-0.228,8.936-0.684l0.439,0.293l-0.439,1.758c-0.488,1.823-0.847,3.5-1.074,5.029
			c-3.809-0.26-6.608-0.391-8.398-0.391c-1.335,0-2.637,0.065-3.906,0.195c-0.065,3.293-0.098,6.196-0.098,8.706
			c0,10.956,0.325,17.183,0.977,18.683c0.65,1.5,2.197,2.25,4.639,2.25c0.716,0,1.489-0.081,2.319-0.244
			c0.83-0.163,1.717-0.391,2.661-0.684l0.83,1.855c-1.953,2.181-3.857,4.443-5.713,6.787c-1.205,0.195-2.312,0.342-3.32,0.439
			c-1.01,0.098-1.938,0.146-2.783,0.146c-2.734,0-5.021-0.473-6.86-1.417c-1.84-0.945-3.174-2.167-4.004-3.667
			c-0.83-1.5-1.245-3.732-1.245-6.699c0-1.564,0.081-5.671,0.244-12.321c0.162-5.833,0.244-10.445,0.244-13.836l-2.49-0.098
			c-1.042,0-2.377,0.098-4.004,0.293V117.479z"/>
		<path fill="#FFFFFF" d="M398.029,156.737v-4.004c3.36-0.13,5.275-0.35,5.743-0.66c0.469-0.31,0.768-0.872,0.897-1.687
			c0.26-1.598,0.391-5.379,0.391-11.344c0-12.55-0.162-19.346-0.485-20.389c-0.259-0.88-1.39-1.337-3.395-1.37l-3.151-0.098v-3.76
			c3.993-0.428,7.402-0.963,10.228-1.605c2.825-0.642,5.375-1.424,7.648-2.347c0.454-0.165,0.795-0.247,1.022-0.247
			c0.454,0,0.682,0.407,0.682,1.221c0,0.619-0.04,1.449-0.117,2.49c-0.052,0.456-0.078,1.27-0.078,2.441v1.758l7.994-6.006
			c1.689-1.27,4.257-1.904,7.702-1.904c3.477,0,6.238,0.676,8.286,2.026c2.048,1.351,3.607,3.508,4.68,6.471l8.301-6.593
			c1.595-1.27,3.824-1.904,6.689-1.904c5.11,0,8.87,1.256,11.279,3.768c2.408,2.512,3.613,6.59,3.613,12.234l-0.098,4.062
			c-0.131,4.503-0.195,8.515-0.195,12.039c0,4.666,0.146,7.684,0.439,9.054c0.195,0.751,0.528,1.281,1.001,1.591
			c0.472,0.31,2.303,0.563,5.493,0.758v4.004c-4.05-0.195-7.581-0.293-10.594-0.293c-2.916,0-5.944,0.098-9.087,0.293l-0.583-0.929
			c0.846-7.007,1.27-13.851,1.27-20.533c0-7.919-0.612-12.865-1.836-14.837c-1.225-1.972-3.388-2.958-6.488-2.958
			c-2.024,0-3.804,0.507-5.338,1.518c-1.534,1.012-2.546,2.171-3.035,3.476c-0.327,0.914-0.49,3.771-0.49,8.569
			c0,8.618,0.113,14.575,0.342,17.872c0.098,1.47,0.398,2.408,0.903,2.816c0.504,0.408,2.579,0.743,6.226,1.003v4.004
			c-4.265-0.195-8.447-0.293-12.549-0.293c-5.111,0-9.701,0.098-13.77,0.293v-4.004c3.223,0,5.11-0.465,5.664-1.396
			c0.553-0.93,0.83-5.019,0.83-12.266c0-8.258-0.163-13.399-0.488-15.424c-0.326-2.023-1.115-3.558-2.368-4.602
			c-1.254-1.044-2.987-1.567-5.2-1.567c-1.628,0-3.109,0.375-4.443,1.126c-1.335,0.751-2.458,1.812-3.369,3.183
			c-0.521,0.75-0.781,1.91-0.781,3.476l0.049,1.861c0.098,0.914,0.146,3.477,0.146,7.687l-0.049,5.778
			c0,5.55,0.098,8.831,0.293,9.842c0.098,0.653,0.366,1.126,0.806,1.419c0.439,0.294,2.222,0.587,5.347,0.881v4.004
			c-3.899-0.195-8.172-0.293-12.817-0.293C409.563,156.444,405.178,156.542,398.029,156.737z"/>
		<path fill="#FFFFFF" d="M527.527,147.304l1.41,1.42l-2.188,4.673c-2.344,1.456-4.859,2.547-7.546,3.275
			c-2.687,0.727-5.544,1.091-8.571,1.091c-7.098,0-12.689-2.061-16.775-6.183c-4.087-4.122-6.13-9.914-6.13-17.376
			c0-4.724,0.602-8.635,1.807-11.731c0.977-2.509,2.579-4.594,4.81-6.255c2.229-1.662,4.801-3.243,7.715-4.742
			c2.913-1.499,6.111-2.249,9.595-2.249c5.338,0,9.749,1.493,13.232,4.478c3.482,2.985,5.225,7.788,5.225,14.411
			c0,0.816-0.065,2.056-0.195,3.719l-7.995,1.465c-2.47,0.163-6.044,0.244-10.724,0.244h-10.578
			c0.488,5.615,2.164,9.843,5.03,12.683c2.865,2.84,6.513,4.26,10.94,4.26c1.855,0,3.695-0.27,5.519-0.808
			S525.736,148.35,527.527,147.304z M500.324,128.368c2.93,0.261,5.859,0.391,8.789,0.391c2.571,0,5.273-0.13,8.105-0.391
			l0.049-2.303c0-4.018-0.732-6.949-2.197-8.795c-1.465-1.845-3.451-2.769-5.957-2.769c-1.758,0-3.271,0.434-4.541,1.298
			c-1.27,0.866-2.214,2.083-2.832,3.651C501.121,121.019,500.649,123.991,500.324,128.368z"/>
		<path fill="#FFFFFF" d="M536.701,156.737v-4.004c3.548-0.195,5.55-0.48,6.006-0.856c0.455-0.375,0.732-1.214,0.83-2.518
			c0.195-3.292,0.293-9.094,0.293-17.407c0-4.107-0.065-7.645-0.195-10.611c-0.064-1.825-0.193-2.9-0.388-3.227
			c-0.161-0.261-0.42-0.456-0.775-0.586c-0.355-0.131-2.279-0.245-5.771-0.343v-3.76c1.763,0,4.512-0.378,8.248-1.136
			c3.736-0.757,6.877-1.63,9.423-2.618l1.321-0.445c0.457,0,0.686,0.375,0.686,1.123l-0.049,0.439
			c-0.098,0.912-0.146,3.255-0.146,7.031l7.557-6.348c0.941-0.813,1.917-1.367,2.925-1.66c1.43-0.391,3.168-0.586,5.216-0.586
			c3.445,0,6.264,0.596,8.458,1.787c2.193,1.191,3.803,2.838,4.826,4.942c1.024,2.104,1.536,5.375,1.536,9.813
			c0,1.958-0.049,4.225-0.146,6.802c-0.163,5.286-0.244,9.853-0.244,13.702c0,2.187,0.179,3.704,0.537,4.551
			c0.26,0.587,0.626,0.979,1.099,1.175c0.472,0.196,2.254,0.441,5.347,0.734v4.004l-6.006-0.195l-3.857-0.098l-10.059,0.293
			l-0.537-0.636c0.846-6.192,1.27-12.548,1.27-19.067c0-8.278-0.505-13.379-1.514-15.302c-1.303-2.476-3.679-3.715-7.129-3.715
			c-2.214,0-4.135,0.563-5.762,1.689c-1.628,1.126-2.686,2.326-3.174,3.599c-0.229,0.522-0.342,2.171-0.342,4.946
			c0,11.817,0.049,18.583,0.146,20.297c0.098,1.713,0.374,2.766,0.83,3.158c0.586,0.49,2.767,0.833,6.543,1.028v4.004
			c-5.664-0.195-10.449-0.293-14.355-0.293C547.036,156.444,542.82,156.542,536.701,156.737z"/>
		<path fill="#FFFFFF" d="M596.125,117.479l6.494-4.248c-0.072-5.762-0.235-10.807-0.488-15.137
			c4.444-1.367,8.644-3.027,12.598-4.98l1.465,1.123c-0.717,4.72-1.205,11.052-1.465,18.994c1.497,0.261,2.979,0.391,4.443,0.391
			c3.32,0,6.299-0.228,8.936-0.684l0.439,0.293l-0.439,1.758c-0.488,1.823-0.847,3.5-1.074,5.029
			c-3.809-0.26-6.608-0.391-8.398-0.391c-1.335,0-2.637,0.065-3.906,0.195c-0.065,3.293-0.098,6.196-0.098,8.706
			c0,10.956,0.325,17.183,0.977,18.683c0.65,1.5,2.197,2.25,4.639,2.25c0.716,0,1.489-0.081,2.319-0.244
			c0.83-0.163,1.717-0.391,2.661-0.684l0.83,1.855c-1.953,2.181-3.857,4.443-5.713,6.787c-1.205,0.195-2.312,0.342-3.32,0.439
			c-1.01,0.098-1.938,0.146-2.783,0.146c-2.734,0-5.021-0.473-6.86-1.417c-1.84-0.945-3.174-2.167-4.004-3.667
			c-0.83-1.5-1.245-3.732-1.245-6.699c0-1.564,0.081-5.671,0.244-12.321c0.162-5.833,0.244-10.445,0.244-13.836l-2.49-0.098
			c-1.042,0-2.377,0.098-4.004,0.293V117.479z"/>
	</g>
</g>
</svg>
